<svg xmlns="http://www.w3.org/2000/svg" viewBox="0 0 60.62516 58.426"><title>Asset 2</title><g id="a73ba25f-b26c-4005-9a1a-eb23176bfacd" data-name="Layer 2"><g id="8c8c7db8-6de3-44b6-ace2-a7efd588b448" data-name="Layer 2"><path d="M52.09537,15.08369A55.51181,55.51181,0,0,1,49.2211.27632c-.02319-.29883-.479-.40137-.55273-.07349a28.23566,28.23566,0,0,0-.16089,10.34448c.5542,3.74438,2.49536,7.38574,2.7124,11.14209.2417,4.18408-2.29077,7.42139-4.38574,10.77222a31.15132,31.15132,0,0,0-3.14062,7.30957C41.894,45.1938,38.76261,45.15351,34.24576,46.279c-3.00952.75-5.18945,2.28613-7.87891,3.73657-5.0249,2.71021-9.25708.269-14.35864-.29224a36.27122,36.27122,0,0,0-11.385.73755c-1.09595.22729-.62329,1.88086.46533,1.67114,6.36621-1.22534,11.6355-.05713,17.87061,1.09009A11.91859,11.91859,0,0,0,27.37906,51.737,49.98188,49.98188,0,0,1,38.5297,47.35615c2.218-.616,4.24658-1.4541,5.61841-3.406,2.16895-3.08545,2.23413-7.23486,4.39722-10.49414,1.80762-2.72363,4.15552-5.23755,4.96021-8.49878C54.34684,21.548,53.22428,18.28437,52.09537,15.08369Z" fill="#009fe3"/><path d="M60.23844,29.215c-.15161-.89453-1.58276-.66748-1.5647.21558.05713,2.79224.41284,6.07544-1.64673,8.40039-.79126.89331-2.01782,1.3811-2.81592,2.28882-1.50879,1.71631-1.75439,3.74341-2.46777,5.82813-2.86182,8.3623-12.69092,9.012-19.82568,12-.22363.09375-.23267.51392.06543.47559,6.89673-.8877,17.11035-2.27759,20.739-9.22046a28.3706,28.3706,0,0,0,1.51172-4.64624c.98926-3.06787,3.4248-3.88892,5.04614-6.35864C61.02848,35.53437,60.74625,32.20552,60.23844,29.215Z" fill="#009fe3"/></g></g></svg>