<svg xmlns="http://www.w3.org/2000/svg" viewBox="0 0 58.38873 65.96723"><title>Asset 1</title><g id="1b7546d3-e9be-4025-bf13-6cab1b3c7364" data-name="Layer 2"><g id="8687737e-4ad9-498c-a8d2-2e8150a8dee9" data-name="Layer 2"><path d="M58.0366,5.16059c-5.03784.45215-9.65527-1.75635-14.63721-1.76611-4.48071-.00854-7.2439,2.23267-10.84644,4.5293-4.01489,2.55933-8.86621,1.81006-12.86255,4.30981a12.86912,12.86912,0,0,0-5.54077,7.37109c-1.35181,4.85034.62671,10.22681-2.84448,14.46582-2.16528,2.644-4.47681,4.10669-5.2207,7.66235-1.60645,7.679,4.59839,16.51855.249,23.62158-.23022.376.34619.8457.627.48145,3.6521-4.74414,2.85742-10.0542,2.05713-15.66455-.68164-4.77832-1.002-9.10889,2.439-12.95874,2.11475-2.366,3.58643-4.05347,4.1582-7.27368.83276-4.68921-.36475-9.772,3.07178-13.6936,3.4292-3.91382,8.15674-3.00391,12.446-4.93652,5.14087-2.31616,7.678-5.822,13.8772-5.62646,4.46631.14087,8.6665,1.02319,13.12427.18384A.36092.36092,0,0,0,58.0366,5.16059Z" fill="#faf5ed"/><path d="M26.15305.05219a15.86178,15.86178,0,0,1-7.96411,3.05225c-1.92993.13062-3.86475-.14185-5.77759.22949a12.07309,12.07309,0,0,0-7.4646,4.86792,14.53,14.53,0,0,0-2.50122,8.28809C2.2573,22.1894,2.1655,27.04731.02195,32.39252c-.13184.32935.366.48779.54346.22729a21.421,21.421,0,0,0,3.65332-9.05347c.69336-4.68018-.80151-10.30347,1.89771-14.4668,3.04175-4.69116,7.59229-3.93823,12.27393-4.53369A13.741,13.741,0,0,0,26.54246.55414C26.78928.30073,26.46433-.15411,26.15305.05219Z" fill="#faf5ed"/></g></g></svg>