<svg xmlns="http://www.w3.org/2000/svg" width="309.3" height="40.5"><path fill="#fff" d="M34 0c-4.2.2-9 1.2-13.7 3C12.7 6 6.7 9-.3 13v27.8h310v-8C276.3 39.3 273 17.5 273 17.5c-.8-1.8-2.5-6.5-6.3-8.5-8.3-4-25.5-2-38 3.8-15.7 7-36.8 22.6-52 23.6-10.3.7-13.6-3.6-14.3-7.3-.2-1.5.3-3.4 1-5 1.2-2.7 3-7.7-.3-11.7-4.3-5.3-18.7-4.5-18.7-4.5-29.3 1.6-41.8 11-63.8 21-14 6.3-24 8.4-31.6 6.6-1.5-.2-4.2-1.2-6.5-3-3-2.2-6.3-7-4.3-11.7 1-1.8 2-3 4.4-5 .5-.6 2-2 2.7-3 2.8-4 1.6-10.4-5.6-12C39 .2 37.5 0 36 0H34z"/></svg>